<mxfile host="app.diagrams.net" modified="2023-10-13T07:41:51.050Z" agent="Mozilla/5.0 (Windows NT 10.0; Win64; x64) AppleWebKit/537.36 (KHTML, like Gecko) Chrome/116.0.0.0 Safari/537.36" version="22.0.4" etag="yNOElGLxxkt1yq3HvGto" type="github">
  <diagram name="第 1 页" id="J_-8TlKIkKhqejz_CC2f">
    <mxGraphModel>
      <root>
        <mxCell id="0" />
        <mxCell id="1" parent="0" />
      </root>
    </mxGraphModel>
  </diagram>
</mxfile>
